<svg xmlns="http://www.w3.org/2000/svg" viewBox="0 0 443.84 100.99"><defs><style>.cls-1,.cls-2{fill:#232f3e;}.cls-1{fill-rule:evenodd;}</style></defs><g id="Layer_2" data-name="Layer 2"><g id="Layer_1-2" data-name="Layer 1"><path class="cls-1" d="M171.8,82.8C155.71,94.68,132.38,101,112.3,101A107.65,107.65,0,0,1,39.61,73.26c-1.51-1.36-.16-3.21,1.65-2.16A146.35,146.35,0,0,0,114,90.4,144.54,144.54,0,0,0,169.46,79C172.18,77.89,174.46,80.84,171.8,82.8Z"/><path class="cls-1" d="M178.49,75.16c-2.05-2.63-13.6-1.25-18.79-.63-1.57.19-1.81-1.18-.39-2.18,9.21-6.46,24.3-4.6,26.05-2.43s-.46,17.31-9.09,24.53c-1.33,1.11-2.59.52-2-.94C176.21,88.65,180.56,77.8,178.49,75.16Z"/><path class="cls-1" d="M160.07,26.65V20.37a1.55,1.55,0,0,1,1.59-1.59h28.18a1.57,1.57,0,0,1,1.62,1.59v5.39c0,.91-.77,2.09-2.12,4L174.75,50.54c5.41-.12,11.14.69,16.07,3.46a2.86,2.86,0,0,1,1.49,2.45v6.71a1.51,1.51,0,0,1-2.08,1.43,32.42,32.42,0,0,0-29.76.06c-1,.52-2-.53-2-1.46V56.82a7.55,7.55,0,0,1,1-4.32l16.91-24.26H161.7A1.57,1.57,0,0,1,160.07,26.65Z"/><path class="cls-1" d="M57.3,65.91H48.73a1.61,1.61,0,0,1-1.53-1.44v-44a1.62,1.62,0,0,1,1.65-1.59h8a1.61,1.61,0,0,1,1.56,1.48v5.74h.16c2.08-5.55,6-8.15,11.28-8.15s8.72,2.6,11.12,8.15a12.65,12.65,0,0,1,21.76-3.33c2.72,3.7,2.17,9.07,2.17,13.79V64.33a1.61,1.61,0,0,1-1.66,1.58H94.66a1.59,1.59,0,0,1-1.53-1.57V41c0-1.85.16-6.47-.24-8.23-.64-3-2.56-3.8-5-3.8a5.68,5.68,0,0,0-5.12,3.61c-.88,2.22-.8,5.92-.8,8.42V64.33a1.61,1.61,0,0,1-1.65,1.58H71.71a1.6,1.6,0,0,1-1.54-1.57V41c0-4.9.8-12.12-5.28-12.12S59,35.92,59,41V64.33A1.61,1.61,0,0,1,57.3,65.91Z"/><path class="cls-1" d="M215.71,18c12.72,0,19.6,10.93,19.6,24.81,0,13.42-7.59,24.07-19.6,24.07-12.48,0-19.28-10.92-19.28-24.53S203.31,18,215.71,18Zm.08,9c-6.32,0-6.72,8.6-6.72,14s-.08,16.85,6.64,16.85,7-9.26,7-14.9c0-3.71-.16-8.15-1.28-11.67C220.43,28.15,218.51,27,215.79,27Z"/><path class="cls-1" d="M251.81,65.91h-8.54a1.6,1.6,0,0,1-1.54-1.57v-44a1.62,1.62,0,0,1,1.65-1.44h7.95a1.63,1.63,0,0,1,1.52,1.23v6.73H253c2.4-6,5.76-8.89,11.68-8.89a11.23,11.23,0,0,1,10,5.19c2.24,3.52,2.24,9.44,2.24,13.7V64.53a1.61,1.61,0,0,1-1.64,1.38h-8.59a1.61,1.61,0,0,1-1.53-1.38V40.65c0-4.82.56-11.85-5.36-11.85a5.6,5.6,0,0,0-5,3.51,19.59,19.59,0,0,0-1.36,8.34V64.33A1.63,1.63,0,0,1,251.81,65.91Z"/><path class="cls-1" d="M137.61,44.91c0,3.34.08,6.12-1.6,9.09a7,7,0,0,1-5.93,3.9c-3.29,0-5.22-2.51-5.22-6.22,0-7.3,6.55-8.63,12.75-8.63Zm8.64,20.89a1.75,1.75,0,0,1-2,.2,20.77,20.77,0,0,1-4.92-5.71c-4.7,4.8-8,6.23-14.13,6.23-7.21,0-12.82-4.45-12.82-13.36a14.54,14.54,0,0,1,9.14-14c4.65-2,11.14-2.42,16.11-3V35.07c0-2,.16-4.45-1-6.21a5.72,5.72,0,0,0-4.81-2.23c-3.27,0-6.18,1.68-6.89,5.15a1.8,1.8,0,0,1-1.49,1.57l-8.31-.9a1.51,1.51,0,0,1-1.28-1.79c1.92-10.08,11-13.12,19.17-13.12,4.17,0,9.62,1.11,12.91,4.27,4.17,3.89,3.77,9.09,3.77,14.75V49.91c0,4,1.67,5.78,3.23,7.94a1.62,1.62,0,0,1,0,2.28c-1.75,1.47-4.87,4.17-6.58,5.69Z"/><path class="cls-1" d="M25.25,44.91c0,3.34.09,6.12-1.6,9.09a7,7,0,0,1-5.93,3.9c-3.29,0-5.21-2.51-5.21-6.22,0-7.3,6.55-8.63,12.74-8.63ZM33.9,65.8a1.77,1.77,0,0,1-2,.2A20.54,20.54,0,0,1,27,60.29c-4.71,4.8-8,6.23-14.13,6.23C5.61,66.52,0,62.07,0,53.16a14.56,14.56,0,0,1,9.14-14c4.65-2,11.15-2.42,16.11-3V35.07c0-2,.17-4.45-1-6.21a5.71,5.71,0,0,0-4.81-2.23c-3.27,0-6.17,1.68-6.89,5.15A1.79,1.79,0,0,1,11,33.35l-8.3-.9a1.51,1.51,0,0,1-1.28-1.79c1.91-10.08,11-13.12,19.17-13.12,4.16,0,9.62,1.11,12.9,4.27,4.17,3.89,3.77,9.09,3.77,14.75V49.91c0,4,1.67,5.78,3.24,7.94.54.79.67,1.71,0,2.28-1.75,1.47-4.86,4.17-6.57,5.69Z"/><path class="cls-2" d="M304.23,69.64c0,3.65-.9,6.44-2.7,8.35s-4.45,2.87-7.93,2.87a24.74,24.74,0,0,1-7.18-1.09v-6a29.54,29.54,0,0,0,5,.34,5.29,5.29,0,0,0,3.42-.89,3.61,3.61,0,0,0,1.06-2.91V19.67h8.35ZM305.33,7a5,5,0,0,1-1.39,3.67,6,6,0,0,1-7.68,0A5,5,0,0,1,294.86,7a5,5,0,0,1,1.4-3.68,6,6,0,0,1,7.68,0A5,5,0,0,1,305.33,7Z"/><path class="cls-2" d="M350.32,57.73q-5.4,6-15,6t-15-6q-5.4-6-5.4-16.71t5.4-16.63q5.4-6,15-6t15,6q5.4,6,5.4,16.63T350.32,57.73Zm-15-.75q11.91,0,11.9-16t-11.9-15.87q-11.9,0-11.9,15.87T335.29,57Z"/><path class="cls-2" d="M372.94,62.46H366V0h8.35V23.72a20.85,20.85,0,0,1,13.68-5.32q8.18,0,12.91,5.91t4.73,16.21q0,10.38-5,16.62a16.08,16.08,0,0,1-13.25,6.25A19.35,19.35,0,0,1,373.87,58Zm1.43-9.87a18.14,18.14,0,0,0,11.14,4q11.65,0,11.65-15.7,0-8-2.82-11.9t-8.66-3.89A18.87,18.87,0,0,0,374.37,29Z"/><path class="cls-2" d="M434.47,39.17a17.23,17.23,0,0,1,7.18,4.6,10.44,10.44,0,0,1,2.19,6.87,11.53,11.53,0,0,1-4.47,9.54q-4.49,3.56-11.9,3.55A31,31,0,0,1,413,60.52V54.61a47,47,0,0,0,14.68,2.62q4.14,0,6.29-1.61A5.4,5.4,0,0,0,436.07,51a4.37,4.37,0,0,0-1.3-3.29A14.29,14.29,0,0,0,430,45.16l-7.18-2.7q-9.36-3.47-9.37-11.82a10.74,10.74,0,0,1,4.27-8.86Q422,18.41,428.9,18.4a29.94,29.94,0,0,1,12.58,2.7V27a40,40,0,0,0-12.16-2.11q-8.1,0-8.1,5.49a4.53,4.53,0,0,0,1.35,3.46,17.58,17.58,0,0,0,5.32,2.78Z"/></g></g></svg>